<?xml version="1.0" encoding="UTF-8" standalone="no"?>
<svg
   xmlns:dc="http://purl.org/dc/elements/1.1/"
   xmlns:cc="http://creativecommons.org/ns#"
   xmlns:rdf="http://www.w3.org/1999/02/22-rdf-syntax-ns#"
   xmlns:svg="http://www.w3.org/2000/svg"
   xmlns="http://www.w3.org/2000/svg"
   xmlns:sodipodi="http://sodipodi.sourceforge.net/DTD/sodipodi-0.dtd"
   xmlns:inkscape="http://www.inkscape.org/namespaces/inkscape"
   height="19"
   viewBox="0 0 19 19"
   width="19"
   version="1.1"
   id="svg6"
   sodipodi:docname="add_photo.svg"
   inkscape:version="0.92.4 (5da689c313, 2019-01-14)">
  <metadata
     id="metadata12">
    <rdf:RDF>
      <cc:Work
         rdf:about="">
        <dc:format>image/svg+xml</dc:format>
        <dc:type
           rdf:resource="http://purl.org/dc/dcmitype/StillImage" />
        <dc:title />
      </cc:Work>
    </rdf:RDF>
  </metadata>
  <defs
     id="defs10" />
  <sodipodi:namedview
     pagecolor="#ffffff"
     bordercolor="#666666"
     borderopacity="1"
     objecttolerance="10"
     gridtolerance="10"
     guidetolerance="10"
     inkscape:pageopacity="0"
     inkscape:pageshadow="2"
     inkscape:window-width="1366"
     inkscape:window-height="697"
     id="namedview8"
     showgrid="false"
     inkscape:pagecheckerboard="true"
     fit-margin-top="0"
     fit-margin-left="0"
     fit-margin-right="0"
     fit-margin-bottom="0"
     inkscape:zoom="21.524155"
     inkscape:cx="4.0247838"
     inkscape:cy="8.6316804"
     inkscape:window-x="0"
     inkscape:window-y="0"
     inkscape:window-maximized="1"
     inkscape:current-layer="svg6" />
  <path
     d="M 18.02,3 H 16 V 0.98 C 16,0.44 15.56,0 15.02,0 H 14.99 C 14.44,0 14,0.44 14,0.98 V 3 H 11.99 C 11.45,3 11.01,3.44 11,3.98 V 4.01 C 11,4.56 11.44,5 11.99,5 H 14 v 2.01 c 0,0.54 0.44,0.99 0.99,0.98 h 0.03 C 15.56,7.99 16,7.55 16,7.01 V 5 h 2.02 C 18.56,5 19,4.56 19,4.02 V 3.98 C 19,3.44 18.56,3 18.02,3 Z M 13,7.01 V 6 H 11.99 C 11.46,6 10.96,5.79 10.58,5.42 10.21,5.04 10,4.54 10,3.98 10,3.62 10.1,3.29 10.27,3 H 2 C 0.9,3 0,3.9 0,5 v 12 c 0,1.1 0.9,2 2,2 h 12 c 1.1,0 2,-0.9 2,-2 V 8.72 C 15.7,8.89 15.36,9 14.98,9 13.89,8.99 13,8.1 13,7.01 Z M 12.96,17 H 3 C 2.59,17 2.35,16.53 2.6,16.2 L 4.58,13.57 C 4.79,13.29 5.2,13.31 5.4,13.59 L 7,16 9.61,12.52 c 0.2,-0.26 0.59,-0.27 0.79,-0.01 l 2.95,3.68 C 13.61,16.52 13.38,17 12.96,17 Z"
     id="path4"
     style="fill:#b52b45;fill-opacity:1"
     inkscape:connector-curvature="0" />
</svg>
