<?xml version="1.0" encoding="UTF-8" standalone="no"?>
<svg
   xmlns:dc="http://purl.org/dc/elements/1.1/"
   xmlns:cc="http://creativecommons.org/ns#"
   xmlns:rdf="http://www.w3.org/1999/02/22-rdf-syntax-ns#"
   xmlns:svg="http://www.w3.org/2000/svg"
   xmlns="http://www.w3.org/2000/svg"
   xmlns:sodipodi="http://sodipodi.sourceforge.net/DTD/sodipodi-0.dtd"
   xmlns:inkscape="http://www.inkscape.org/namespaces/inkscape"
   version="1.0"
   width="130.506"
   height="193.216"
   id="svg2999"
   inkscape:version="0.92.4 (5da689c313, 2019-01-14)"
   sodipodi:docname="female.svg">
  <metadata
     id="metadata3011">
    <rdf:RDF>
      <cc:Work
         rdf:about="">
        <dc:format>image/svg+xml</dc:format>
        <dc:type
           rdf:resource="http://purl.org/dc/dcmitype/StillImage" />
        <dc:title></dc:title>
      </cc:Work>
    </rdf:RDF>
  </metadata>
  <sodipodi:namedview
     pagecolor="#ffffff"
     bordercolor="#666666"
     borderopacity="1"
     objecttolerance="10"
     gridtolerance="10"
     guidetolerance="10"
     inkscape:pageopacity="0"
     inkscape:pageshadow="2"
     inkscape:window-width="1366"
     inkscape:window-height="697"
     id="namedview3009"
     showgrid="false"
     inkscape:zoom="1.2677925"
     inkscape:cx="49.893211"
     inkscape:cy="38.085603"
     inkscape:window-x="0"
     inkscape:window-y="0"
     inkscape:window-maximized="1"
     inkscape:current-layer="svg2999"
     fit-margin-top="0"
     fit-margin-left="0"
     fit-margin-right="0"
     fit-margin-bottom="0" />
  <defs
     id="defs3001">
    <style
       type="text/css"
       id="style3003">
			path{fill:#fff;stroke:#000;stroke-width:5;stroke-linejoin:round}
		</style>
  </defs>
  <path
     d="m 57.946,130.016 c -17.15,-2.1 -31.1,-9.4 -41.84,-21.8 C 5.366,95.716 0,81.396 0,65.266 0,47.326 6.376,31.966 19.116,19.176 31.866,6.396 47.246,0 65.266,0 c 17.86,0 33.24,6.416 46.04,19.236 12.8,12.83 19.2,28.17 19.2,46.03 0,16.13 -5.4,30.45 -16.1,42.95 -10.8,12.4 -24.79,19.7 -41.94,21.8 v 24.5 h 24.24 v 14.5 h -24.24 v 24.2 h -14.52 v -24.2 h -24.07 v -14.5 h 24.07 z m 7.32,-14 c 13.93,0 25.87,-5 35.84,-14.9 9.9,-9.88 14.9,-21.84 14.9,-35.85 0,-14 -4.9,-25.96 -14.9,-35.88 -9.87,-9.91 -21.83,-14.87 -35.84,-14.87 -14,0 -25.96,4.98 -35.88,14.93 -9.91,9.95 -14.87,21.89 -14.87,35.82 0,14.01 4.96,25.97 14.87,35.85 9.92,9.9 21.88,14.9 35.88,14.9 z"
     id="path3005"
     style="fill:#b52b45;fill-opacity:1;stroke:none;stroke-width:5;stroke-linejoin:round"
     inkscape:connector-curvature="0" />
</svg>
