<?xml version="1.0" encoding="UTF-8" standalone="no"?>
<svg
   xmlns:dc="http://purl.org/dc/elements/1.1/"
   xmlns:cc="http://creativecommons.org/ns#"
   xmlns:rdf="http://www.w3.org/1999/02/22-rdf-syntax-ns#"
   xmlns:svg="http://www.w3.org/2000/svg"
   xmlns="http://www.w3.org/2000/svg"
   xmlns:sodipodi="http://sodipodi.sourceforge.net/DTD/sodipodi-0.dtd"
   xmlns:inkscape="http://www.inkscape.org/namespaces/inkscape"
   version="1.0"
   width="162.39999"
   height="162.33"
   id="svg2999"
   inkscape:version="0.92.4 (5da689c313, 2019-01-14)"
   sodipodi:docname="male.svg">
  <metadata
     id="metadata3011">
    <rdf:RDF>
      <cc:Work
         rdf:about="">
        <dc:format>image/svg+xml</dc:format>
        <dc:type
           rdf:resource="http://purl.org/dc/dcmitype/StillImage" />
        <dc:title></dc:title>
      </cc:Work>
    </rdf:RDF>
  </metadata>
  <sodipodi:namedview
     pagecolor="#ffffff"
     bordercolor="#666666"
     borderopacity="1"
     objecttolerance="10"
     gridtolerance="10"
     guidetolerance="10"
     inkscape:pageopacity="0"
     inkscape:pageshadow="2"
     inkscape:window-width="1366"
     inkscape:window-height="697"
     id="namedview3009"
     showgrid="false"
     inkscape:zoom="1.7929293"
     inkscape:cx="22.008831"
     inkscape:cy="119.05"
     inkscape:window-x="0"
     inkscape:window-y="0"
     inkscape:window-maximized="1"
     inkscape:current-layer="svg2999"
     fit-margin-top="0"
     fit-margin-left="0"
     fit-margin-right="0"
     fit-margin-bottom="0" />
  <defs
     id="defs3001">
    <style
       type="text/css"
       id="style3003">
			path{fill:#fff;stroke:#000;stroke-width:5;stroke-linejoin:round}
		</style>
  </defs>
  <path
     d="M 159.9,47.23 H 145.4 V 27.17 l -26.6,26.55 c 9.5,11.96 14.3,25.61 14.3,40.81 0,18 -6.4,33.3 -19.2,46.1 -12.8,12.8 -28.2,19.2 -46.1,19.2 -17.9,0 -33.3,-6.4 -46.1,-19.2 C 8.9,127.83 2.5,112.53 2.5,94.53 2.5,76.7 8.9,61.37 21.7,48.59 34.5,35.8 49.9,29.41 67.8,29.41 c 15.3,0 28.9,4.72 40.8,14.16 L 135.2,17.01 H 115.1 V 2.5 h 44.8 z m -92.1,98.2 c 13.9,0 25.9,-5 35.8,-14.9 10,-10 15,-22 15,-36 0,-14 -5,-25.94 -14.9,-35.85 C 93.8,48.76 81.8,43.81 67.8,43.81 53.9,43.81 41.9,48.78 32,58.74 22,68.69 17.1,80.63 17.1,94.53 c 0,14 4.9,26 14.9,36 9.9,9.9 21.9,14.9 35.8,14.9 z"
     id="path3007"
     style="fill:#b52b45;fill-opacity:1;stroke:none;stroke-width:5;stroke-linejoin:round"
     inkscape:connector-curvature="0" />
</svg>
