<?xml version="1.0" encoding="UTF-8" standalone="no"?>
<!-- Created with Inkscape (http://www.inkscape.org/) -->

<svg
   xmlns:dc="http://purl.org/dc/elements/1.1/"
   xmlns:cc="http://creativecommons.org/ns#"
   xmlns:rdf="http://www.w3.org/1999/02/22-rdf-syntax-ns#"
   xmlns:svg="http://www.w3.org/2000/svg"
   xmlns="http://www.w3.org/2000/svg"
   xmlns:sodipodi="http://sodipodi.sourceforge.net/DTD/sodipodi-0.dtd"
   xmlns:inkscape="http://www.inkscape.org/namespaces/inkscape"
   width="250px"
   height="250px"
   viewBox="0 0 210 210"
   version="1.1"
   id="svg8"
   inkscape:version="0.92.4 (5da689c313, 2019-01-14)"
   sodipodi:docname="Rose.svg">
  <defs
     id="defs2" />
  <sodipodi:namedview
     id="base"
     pagecolor="#ffffff"
     bordercolor="#666666"
     borderopacity="1.0"
     inkscape:pageopacity="0.0"
     inkscape:pageshadow="2"
     inkscape:zoom="1.360824"
     inkscape:cx="127.53228"
     inkscape:cy="120.32253"
     inkscape:document-units="px"
     inkscape:current-layer="layer1"
     showgrid="false"
     inkscape:window-width="1366"
     inkscape:window-height="697"
     inkscape:window-x="0"
     inkscape:window-y="0"
     inkscape:window-maximized="1" />
  <metadata
     id="metadata5">
    <rdf:RDF>
      <cc:Work
         rdf:about="">
        <dc:format>image/svg+xml</dc:format>
        <dc:type
           rdf:resource="http://purl.org/dc/dcmitype/StillImage" />
        <dc:title></dc:title>
      </cc:Work>
    </rdf:RDF>
  </metadata>
  <g
     inkscape:label="Layer 1"
     inkscape:groupmode="layer"
     id="layer1">
    <path
       inkscape:connector-curvature="0"
       id="path1524"
       d="m 90.39984,206.15774 c -11.687608,-2.05721 -25.674781,-7.94331 -28.583845,-12.02873 -3.990154,-5.60366 -3.637902,-12.01785 0.997051,-18.15538 1.441475,-1.90878 4.302762,-5.87663 6.35842,-8.81744 2.055667,-2.9408 3.863226,-5.22128 4.016808,-5.0677 0.153583,0.1536 -0.218746,1.67743 -0.827398,3.38629 -3.786108,10.62997 1.654019,22.28423 12.056714,25.82879 4.39469,1.49742 7.28251,1.50059 12.18493,0.0128 4.93934,-1.49841 12.6731,-1.49453 16.93309,0.009 9.97543,3.51954 20.92621,-1.03222 24.8024,-10.30925 1.41314,-3.38216 1.37559,-11.00243 -0.0746,-15.11241 -1.5603,-4.42239 -0.49308,-3.52394 5.00719,4.2153 6.29764,8.8612 7.12528,10.65351 7.12528,15.42996 0,5.7972 -2.44134,10.46733 -6.97532,13.34329 -10.94508,6.9426 -35.63416,10.32573 -53.02081,7.2654 z m -50.736074,-3.08873 c -0.463522,-0.46353 2.065872,-15.09617 2.723131,-15.75341 0.231972,-0.23198 1.933313,-0.59543 3.780757,-0.80767 1.847446,-0.21226 3.973986,-0.71504 4.725646,-1.11731 2.096491,-1.12201 2.254037,-0.95744 2.254037,2.35458 0,1.69731 0.321839,3.9325 0.715197,4.96711 0.39336,1.03461 0.481589,2.22397 0.196067,2.643 -0.472931,0.69409 -12.988457,8.12622 -13.684357,8.12622 -0.163879,0 -0.483595,-0.18565 -0.710478,-0.41252 z M 162.6625,200.39365 c -7.35949,-4.13351 -7.7939,-4.63667 -6.70365,-7.76419 0.48603,-1.3942 0.71575,-3.41337 0.51051,-4.48704 -0.20526,-1.07366 -0.11983,-2.10867 0.18968,-2.29999 0.30957,-0.19134 2.8209,0.11086 5.58074,0.67149 l 5.01786,1.01937 1.29738,5.81739 c 1.61417,7.23791 1.7485,10.14105 0.46722,10.0976 -0.53918,-0.0182 -3.40107,-1.39287 -6.35974,-3.05463 z m -44.81344,-12.93268 c -0.43135,-0.15481 -3.51268,-0.88819 -6.8474,-1.62975 -5.74017,-1.27647 -6.35841,-1.27591 -11.6064,0.01 -12.94684,3.17279 -21.537496,-1.13007 -23.243367,-11.64206 -0.520408,-3.20693 1.024752,-9.08739 2.54067,-9.6691 0.632971,-0.24289 2.88564,0.30466 5.005927,1.21679 2.23558,0.96171 5.52163,1.65841 7.82215,1.65841 3.71489,0 4.10449,0.19368 6.12872,3.0468 1.1889,1.67575 3.13972,4.70244 4.33516,6.726 1.19542,2.02356 2.6071,3.53638 3.13705,3.36182 0.52995,-0.17455 2.58181,-2.92621 4.55971,-6.11482 l 3.59617,-5.79746 5.86276,-0.90649 c 3.2245,-0.49855 6.97072,-1.47942 8.3249,-2.17969 3.43023,-1.77385 4.80928,-1.59507 5.6965,0.73849 2.47779,6.5171 -0.79421,16.71173 -6.27302,19.54493 -2.26003,1.16871 -7.63233,2.14098 -9.03953,1.63597 z m 41.4141,-7.58904 c -3.14932,-0.91098 -6.39636,-4.1739 -12.48232,-12.54339 -6.44925,-8.86904 -6.56093,-9.14754 -2.58393,-6.44258 4.53265,3.08291 7.88448,4.16666 12.88656,4.16666 4.89907,0 8.72346,-1.47125 12.54398,-4.82572 4.30138,-3.77667 6.05992,-7.89504 6.64628,-15.56512 0.55551,-7.26643 2.13219,-11.46525 6.43427,-17.13492 2.44156,-3.2177 2.5877,-3.7748 2.5877,-9.86478 0,-5.81567 -0.23491,-6.83446 -2.37352,-10.29357 -3.31699,-5.36511 -8.33871,-8.332449 -15.11436,-8.931108 -6.50535,-0.574788 -5.71894,-1.165744 6.29487,-4.730417 8.2622,-2.451516 8.48875,-2.474588 12.5909,-1.28206 4.85706,1.411988 9.39695,5.481195 10.92787,9.794895 1.47603,4.15903 1.17303,20.94089 -0.52555,29.10949 -5.24866,25.24096 -22.38641,49.99713 -34.15171,49.33347 -0.64703,-0.0364 -2.30349,-0.39238 -3.68104,-0.79085 z m -120.654381,-1.4871 c -8.073139,-3.99622 -19.95484,-24.19699 -24.217498,-41.17356 -2.262837,-9.01203 -3.036636,-19.24311 -2.103876,-27.81721 0.968673,-8.90421 1.910114,-11.263887 5.88706,-14.755693 3.542236,-3.110122 8.608177,-3.983827 13.242469,-2.283859 1.815119,0.665826 6.476481,2.184938 10.358584,3.375807 l 7.058371,2.16521 -4.904908,0.592322 C 28.77215,100.31821 20.507295,114.25575 27.21175,126.67917 c 6.18831,11.46698 6.532702,12.44443 6.735689,19.1169 0.229576,7.54655 1.787933,11.23997 6.562468,15.55346 4.428413,4.00081 10.432514,5.67775 16.109172,4.49928 2.340908,-0.48597 5.726503,-1.94866 7.523545,-3.25043 1.797041,-1.30177 3.417139,-2.21707 3.600223,-2.03399 0.348563,0.34856 -7.39241,11.38417 -10.215919,14.56392 -4.271839,4.81081 -12.809304,6.28043 -18.918149,3.25652 z m 63.903491,-9.08939 -1.7401,-2.81554 2.04686,-2.04686 2.04686,-2.04686 1.98206,1.86207 c 1.09014,1.02412 1.98208,2.18721 1.98208,2.58461 0,1.05524 -3.12888,5.27813 -3.91075,5.27813 -0.3668,0 -1.44995,-1.267 -2.40701,-2.81555 z m -16.42588,-8.0509 c -11.631461,-4.55458 -24.312158,-17.09382 -24.312158,-24.04096 0,-4.36696 1.960953,-6.39342 8.702522,-8.99324 3.505187,-1.35175 6.577931,-2.25284 6.828322,-2.00245 0.250403,0.25038 0.03467,1.61842 -0.479416,3.04009 -1.945982,5.38149 -0.865597,7.42128 5.420133,10.2333 2.327997,1.04148 5.627807,3.33898 7.332887,5.10558 3.3844,3.50648 6.64649,4.21444 9.49422,2.06052 2.70027,-2.04236 3.48438,-1.4711 3.46431,2.52391 -0.0475,9.44165 -2.86478,13.55539 -9.24011,13.49187 -2.02483,-0.0202 -5.26965,-0.65856 -7.21071,-1.41862 z m 27.05709,0.75302 c -3.70388,-1.60836 -4.69198,-3.81941 -4.97968,-11.14288 -0.15076,-3.83745 -0.055,-6.97717 0.21288,-6.97717 0.26784,0 1.88162,0.92294 3.58618,2.05096 4.05575,2.68397 6.24178,2.11717 10.90568,-2.82766 1.98407,-2.1036 5.28722,-4.59447 7.3403,-5.53528 4.14456,-1.8992 5.01508,-3.64683 4.14003,-8.31128 l -0.53447,-2.849 2.55576,0.51116 c 1.40567,0.28112 4.40749,1.35889 6.67072,2.39502 3.52781,1.61508 4.24762,2.32671 5.04478,4.98738 1.47573,4.92557 -0.0467,8.1993 -7.01437,15.08343 -9.25943,9.14838 -22.32276,15.04923 -27.92781,12.61532 z m -64.769505,-2.40005 c -6.293247,-1.90717 -8.967459,-6.4729 -10.07791,-17.20614 -0.666593,-6.4431 -1.128217,-7.92771 -3.892674,-12.51913 -6.027538,-10.011 -5.714719,-16.76822 1.051284,-22.70885 2.931551,-2.57394 6.298605,-3.56563 10.686979,-3.14761 l 2.692235,0.25644 0.129033,6.05925 c 0.07097,3.33259 0.542295,7.31142 1.047386,8.84185 0.90867,2.7533 0.864272,2.84636 -4.214621,8.83434 -2.823131,3.32847 -4.852722,6.33199 -4.510204,6.67451 0.342519,0.34251 3.56855,1.32634 7.168957,2.18628 3.600404,0.85992 6.954376,1.90227 7.45327,2.31633 0.498893,0.41403 1.333015,2.17444 1.853606,3.91203 0.520589,1.73757 2.5147,5.08452 4.431362,7.43766 l 3.484833,4.27843 -1.72872,1.61054 c -3.213077,2.99345 -10.960725,4.57237 -15.574823,3.17407 z m 102.811875,-0.45636 c -2.9676,-1.33396 -6.27971,-4.11913 -6.27971,-5.28063 0,-0.3978 1.41277,-2.32827 3.13948,-4.28992 1.7267,-1.96166 3.54842,-4.93157 4.04824,-6.59983 0.49982,-1.66826 1.2928,-3.33372 1.76217,-3.70101 0.46937,-0.3673 3.50029,-1.27784 6.73537,-2.02346 8.15563,-1.87966 8.6269,-2.02589 8.6269,-2.67666 0,-0.31641 -2.16221,-3.12502 -4.80493,-6.24136 -4.59544,-5.41901 -4.77687,-5.79341 -4.16109,-8.58695 0.35411,-1.60649 0.69666,-5.72669 0.76123,-9.156 0.14264,-7.57678 0.83283,-8.31328 6.40747,-6.83742 8.24869,2.18378 12.76906,7.10965 12.77408,13.91994 0.003,3.98432 -0.78152,5.96205 -5.79123,14.60052 -1.60072,2.76021 -2.31176,5.3832 -2.83559,10.46039 -0.39458,3.82443 -1.34535,8.02754 -2.18258,9.64847 -3.26216,6.3159 -11.98477,9.55761 -18.19981,6.76392 z m -60.217,-18.29792 c -1.50556,-1.87349 -3.67154,-3.48576 -5.45443,-4.06011 -3.879609,-1.2498 -4.917868,-2.14426 -4.917868,-4.23675 0,-1.78656 1.919554,-3.90741 5.728178,-6.32887 l 2.19899,-1.39809 2.89872,2.82453 c 1.59429,1.55348 4.26374,3.39323 5.93209,4.08832 2.98474,1.24356 3.02503,1.31593 2.51352,4.51476 -1.29098,8.07338 -4.6929,9.83038 -8.8992,4.59621 z m 22.74281,1.26969 c -0.44015,-0.53918 -1.3401,-2.81114 -1.9999,-5.04881 -1.29606,-4.39555 -1.03978,-5.02483 2.48742,-6.10773 1.01199,-0.31069 3.23841,-2.00589 4.94763,-3.7671 l 3.10764,-3.20222 2.50288,1.43146 c 3.88408,2.2214 6.03208,4.45865 6.03208,6.28277 0,2.21439 -1.44227,3.54933 -3.83474,3.54933 -1.33696,0 -3.09496,1.23622 -5.57642,3.92132 -3.61982,3.91685 -6.0949,4.86631 -7.66659,2.94098 z m -61.936784,-8.9843 c -2.334172,-0.44958 -2.260759,-2.62831 0.165363,-4.90752 1.740461,-1.63509 2.163981,-1.71616 4.313448,-0.82583 2.730889,1.13117 2.870876,1.67686 1.116899,4.35375 -1.237346,1.88843 -1.990191,2.07405 -5.59571,1.3796 z m 100.643364,-1.6802 c -1.17621,-2.27454 -1.15254,-2.44282 0.50714,-3.6053 2.58844,-1.81302 4.2262,-1.49461 6.14053,1.19381 1.97199,2.76943 1.52497,3.52286 -2.53238,4.26811 -2.64683,0.48619 -2.98196,0.335 -4.11529,-1.85662 z m -49.86232,-4.05033 c -3.66489,-0.64615 -5.69964,-1.82588 -8.12928,-4.71334 -5.60265,-6.65838 -4.11874,-15.90126 3.36228,-20.94271 5.60006,-3.773887 14.76958,-1.744781 18.81856,4.16431 6.85533,10.00472 -2.03963,23.60947 -14.05156,21.49174 z m -43.058875,-4.11904 c -7.157538,-3.6784 -7.201947,-17.24903 -0.103573,-31.64801 4.999137,-10.140698 10.985236,-14.228914 16.50722,-11.273637 1.716941,0.918874 8.617168,9.66645 8.617168,10.924178 0,0.554474 -1.08608,0.679431 -3.102649,0.356965 -2.743163,-0.438647 -3.379229,-0.219545 -5.489843,1.891062 -2.015262,2.015262 -2.387193,2.990348 -2.387193,6.258442 0,2.79876 -0.651813,5.09272 -2.352789,8.28027 -1.294034,2.42497 -2.35279,4.99164 -2.35279,5.70371 0,0.71207 1.277684,2.49968 2.839292,3.97247 1.561608,1.47279 2.667861,2.84923 2.458329,3.05877 -0.467042,0.46704 -10.86764,3.47218 -11.961366,3.45611 -0.432717,-0.006 -1.635034,-0.44751 -2.671811,-0.98033 z m 80.115325,-1.4334 c -2.69591,-0.85411 -4.90165,-1.88398 -4.90165,-2.2886 0,-0.40463 1.04829,-1.27777 2.32954,-1.94033 4.58093,-2.36889 4.96376,-6.33947 1.16471,-12.08022 -1.22966,-1.85816 -2.28618,-4.88411 -2.6555,-7.605655 -0.71452,-5.265467 -2.66719,-7.383229 -6.80761,-7.383229 -1.46192,0 -2.65804,-0.321227 -2.65804,-0.713834 0,-1.170191 6.13438,-8.569605 8.25813,-9.961149 5.033,-3.297748 11.15801,0.916099 16.0865,11.067114 6.33929,13.056803 7.13347,26.743813 1.79541,30.942723 -2.55697,2.01132 -6.18015,2.00074 -12.61149,-0.0368 z m -65.093859,-6.60438 c -2.0832,-1.48123 -2.281233,-3.68228 -0.466714,-5.18711 2.075609,-1.72133 3.513563,-5.98863 2.97871,-8.83963 -0.347283,-1.851194 -0.117107,-2.950416 0.812496,-3.880005 2.060112,-2.060113 4.644204,-1.528158 8.289067,1.706381 l 3.38445,3.003444 -1.71611,2.77673 c -0.94386,1.52721 -1.9414,4.42032 -2.21674,6.42912 -0.27534,2.00883 -0.71601,3.77888 -0.97927,3.93346 -0.26327,0.15457 -2.243256,0.51309 -4.39998,0.79667 -2.96892,0.39039 -4.349895,0.2109 -5.685909,-0.73906 z m 51.073169,-0.98169 c -0.48637,-0.31691 -1.14743,-2.16433 -1.46902,-4.10538 -0.32161,-1.94105 -1.33534,-4.87636 -2.25277,-6.5229 l -1.66803,-2.99371 3.43397,-3.084326 c 5.35149,-4.806588 8.72209,-3.952862 8.72209,2.209179 0,3.556567 1.3792,7.038887 3.47748,8.780317 3.1312,2.59866 -0.19649,6.32254 -5.63419,6.30501 -2.0489,-0.006 -4.12318,-0.27129 -4.60953,-0.58819 z M 95.41229,91.349433 c -2.8884,-6.531251 -0.95655,-9.756997 4.72113,-7.883195 2.6646,0.879402 3.92949,0.884414 7.49242,0.02964 3.47444,-0.833507 4.51466,-0.83906 5.49032,-0.02933 1.56842,1.301673 1.47381,5.22032 -0.20641,8.548965 l -1.3348,2.644306 -7.30482,0.100613 -7.30483,0.100599 -1.55301,-3.51163 z M 38.666187,89.791361 C 31.588343,87.311241 29.551351,86.225337 27.152295,83.653426 23.741104,79.996453 22.214679,75.200347 22.934434,70.400678 24.113402,62.53876 39.402249,44.83667 52.505377,36.162162 69.374716,24.994355 89.53061,20.08804 96.92113,25.350555 c 4.82719,3.437258 5.70599,6.516591 5.46019,19.13243 l -0.21753,11.164917 -1.37861,-3.946164 C 97.06861,41.063437 86.56965,35.746162 75.589829,38.941357 c -2.391261,0.695874 -4.854415,2.608832 -9.502148,7.379663 -6.47972,6.65134 -8.955737,8.301796 -15.26543,10.175573 -7.384536,2.192971 -12.541469,9.583556 -12.541469,17.973628 0,6.194825 1.857628,10.107122 6.990104,14.721655 2.268627,2.039701 3.645459,3.686962 3.059626,3.660604 -0.585833,-0.02633 -4.934779,-1.403859 -9.664325,-3.061119 z m 123.101623,1.3228 c 6.30477,-4.653447 8.98457,-9.61778 8.98457,-16.64394 0,-9.013264 -4.65675,-15.220615 -14.1358,-18.842767 -5.78565,-2.210821 -10.23816,-5.84263 -14.98678,-12.224411 -2.92681,-3.933383 -8.0652,-6.185327 -14.11343,-6.185327 -8.35968,0 -13.76517,3.700851 -17.94887,12.288626 l -2.22784,4.573034 -0.0391,-9.632415 c -0.0522,-12.883563 1.70324,-17.022898 8.75264,-20.638044 4.16726,-2.137101 9.58607,-1.882269 18.05991,0.849313 22.43734,7.232753 41.77376,23.428964 50.83249,42.577345 2.66894,5.641619 2.84553,8.354057 0.82846,12.724489 -2.22616,4.823423 -4.42083,6.288758 -14.59409,9.744146 -10.67096,3.624445 -12.85599,3.951762 -9.41218,1.409951 z m 31.56009,-2.285609 -4.516,-2.266345 1.96716,-2.89493 c 1.08192,-1.592213 1.96714,-3.29917 1.96714,-3.793239 0,-0.49407 0.46051,-1.280499 1.02336,-1.747621 C 195.17576,76.959371 210,78.617491 210,79.941821 c 0,1.114055 -10.53056,11.442953 -11.49163,11.27157 -0.36546,-0.06519 -2.69667,-1.138336 -5.18047,-2.384839 z M 5.307276,85.14355 C 2.07219,82.172463 -0.30204103,79.459265 0.03120797,79.114204 0.36445097,78.769153 3.893636,78.031364 7.873838,77.47467 c 7.01226,-0.980776 7.279301,-0.961311 8.60919,0.627428 0.754853,0.901784 1.372461,2.075183 1.372461,2.607564 0,0.532374 0.705836,1.606728 1.568526,2.387454 0.862689,0.780727 1.563887,1.805947 1.558219,2.278277 -0.0085,0.712138 -8.128101,5.179497 -9.400851,5.172334 -0.215672,-0.0014 -3.03902,-2.4331 -6.274107,-5.404177 z m 46.014662,2.363134 c -3.076146,-2.028175 -5.770621,-6.09051 -6.911184,-10.419675 -2.042912,-7.754151 2.046623,-13.736349 12.039489,-17.611453 4.850442,-1.880938 6.606919,-3.128966 11.598095,-8.240793 6.904115,-7.071001 8.397913,-7.946327 13.683848,-8.018351 6.799724,-0.09266 12.561694,4.323568 14.511524,11.122236 0.87979,3.067623 0.32873,3.664565 -4.42284,4.791144 -2.23784,0.530585 -5.73207,2.019517 -7.76498,3.308739 l -3.696158,2.34404 -6.743894,-2.814349 c -3.709139,-1.547893 -7.165254,-2.809127 -7.680256,-2.802742 -0.693492,0.0085 -0.82022,2.09667 -0.488595,8.050306 l 0.447765,8.038698 -3.305354,2.641022 c -1.817943,1.452557 -4.520497,4.540594 -6.005675,6.862304 -1.485178,2.321701 -2.777706,4.218954 -2.872288,4.216111 -0.09458,-0.0028 -1.169856,-0.663102 -2.389497,-1.467237 z M 153.69263,85.645972 c -0.73479,-1.401871 -3.21734,-4.398281 -5.51676,-6.658701 l -4.18077,-4.109836 0.55656,-7.850176 c 0.3964,-5.591388 0.30446,-7.850172 -0.31957,-7.850172 -0.48186,0 -3.90326,1.253094 -7.60312,2.784655 l -6.72702,2.784654 -3.62725,-2.402593 c -3.33019,-2.205826 -5.05601,-2.853867 -11.45713,-4.302121 -2.03253,-0.459859 -2.20049,-0.742089 -1.75809,-2.954138 0.59773,-2.98864 3.50606,-6.914685 7.22158,-9.748657 1.98018,-1.510351 3.99263,-2.22019 7.00195,-2.469745 5.34947,-0.443621 9.80189,1.952223 14.0986,7.586464 3.71944,4.877233 6.19046,6.708759 11.9212,8.836044 8.31725,3.087401 13.75571,10.750738 12.34894,17.400922 -0.82813,3.914839 -3.60126,8.304917 -6.29943,9.972478 -3.36245,2.078102 -4.10653,1.944125 -5.65969,-1.019078 z m -35.00814,-0.983426 c -1.00945,-5.380776 -4.55917,-6.869613 -11.77637,-4.939306 -2.78247,0.744196 -4.33814,0.728086 -7.48121,-0.07749 -3.498,-0.896516 -4.20605,-0.861223 -5.97497,0.297824 -1.10369,0.723169 -2.51135,2.522614 -3.12813,3.998771 -0.61678,1.476186 -1.27998,2.683949 -1.4738,2.683949 -0.1938,0 -1.85452,-2.205737 -3.69045,-4.901642 -4.447275,-6.530412 -4.566468,-9.82289 -0.49083,-13.557944 4.16239,-3.814536 7.98613,-4.678426 20.63212,-4.661361 9.8434,0.01323 11.40876,0.207176 15.12586,1.873552 8.33032,3.734509 9.33667,8.314057 3.67994,16.746259 -1.95015,2.906967 -3.85193,5.285399 -4.22617,5.285399 -0.37427,0 -0.91245,-1.236607 -1.19599,-2.748016 z M 71.342245,73.136974 c -1.078538,-1.078535 -1.291682,-6.901518 -0.252625,-6.901518 0.378666,0 2.002784,0.549153 3.609159,1.220337 2.418627,1.010571 2.841365,1.516107 2.459275,2.940988 -0.253765,0.946354 -0.466223,2.161799 -0.472113,2.700979 -0.01366,1.254735 -4.09821,1.284701 -5.343696,0.03922 z m 61.799945,-1.73632 c 0,-2.276559 0.41364,-2.986028 2.31384,-3.968662 3.62212,-1.873067 4.07051,-1.575246 3.80717,2.528715 -0.23673,3.689339 -0.26739,3.727595 -3.18002,3.968661 -2.88968,0.239163 -2.94099,0.195055 -2.94099,-2.528714 z m -31.58136,-49.975947 -3.74001,-3.776028 3.49042,-7.469274 c 1.91972,-4.1081008 3.68741,-7.4692738 3.92819,-7.4692738 0.36275,0 7.51192,13.6139198 7.51192,14.3046808 0,0.120608 -1.67637,2.011778 -3.72525,4.202603 l -3.72525,3.983317 z"
       style="fill:#cb1b4a;stroke-width:0.78426331" />
  </g>
</svg>
