<?xml version="1.0" encoding="UTF-8" standalone="no"?>
<!-- Created with Inkscape (http://www.inkscape.org/) -->

<svg
   xmlns:dc="http://purl.org/dc/elements/1.1/"
   xmlns:cc="http://creativecommons.org/ns#"
   xmlns:rdf="http://www.w3.org/1999/02/22-rdf-syntax-ns#"
   xmlns:svg="http://www.w3.org/2000/svg"
   xmlns="http://www.w3.org/2000/svg"
   xmlns:sodipodi="http://sodipodi.sourceforge.net/DTD/sodipodi-0.dtd"
   xmlns:inkscape="http://www.inkscape.org/namespaces/inkscape"
   width="500"
   height="250"
   viewBox="0 0 420 210"
   version="1.1"
   id="svg8"
   inkscape:version="0.92.4 (5da689c313, 2019-01-14)"
   sodipodi:docname="youclan.svg"
   inkscape:export-filename="/home/jacobsp/WebDev/youclan/htdocs/assets/youclan_v3.png"
   inkscape:export-xdpi="96"
   inkscape:export-ydpi="96">
  <defs
     id="defs2">
    <clipPath
       clipPathUnits="userSpaceOnUse"
       id="clipPath1442">
      <rect
         style="opacity:0.4806001;fill:#ffdf00;fill-opacity:1;stroke:none;stroke-width:1.58740163;stroke-miterlimit:4;stroke-dasharray:none"
         id="rect1444"
         width="214.25549"
         height="113.09674"
         x="108.07022"
         y="165.38962" />
    </clipPath>
  </defs>
  <sodipodi:namedview
     id="base"
     pagecolor="#ffffff"
     bordercolor="#666666"
     borderopacity="1.0"
     inkscape:pageopacity="0.0"
     inkscape:pageshadow="2"
     inkscape:zoom="0.94533707"
     inkscape:cx="168.45835"
     inkscape:cy="133.8993"
     inkscape:document-units="px"
     inkscape:current-layer="layer1"
     showgrid="false"
     inkscape:window-width="1366"
     inkscape:window-height="697"
     inkscape:window-x="0"
     inkscape:window-y="0"
     inkscape:window-maximized="1" />
  <metadata
     id="metadata5">
    <rdf:RDF>
      <cc:Work
         rdf:about="">
        <dc:format>image/svg+xml</dc:format>
        <dc:type
           rdf:resource="http://purl.org/dc/dcmitype/StillImage" />
        <dc:title />
      </cc:Work>
    </rdf:RDF>
  </metadata>
  <g
     inkscape:label="Layer 1"
     inkscape:groupmode="layer"
     id="layer1">
    <text
       xml:space="preserve"
       style="font-style:normal;font-weight:normal;font-size:89.59999847px;line-height:125%;font-family:sans-serif;letter-spacing:-2.18400002px;word-spacing:0px;fill:#000000;fill-opacity:1;stroke:none;stroke-width:0.83999997px;stroke-linecap:butt;stroke-linejoin:miter;stroke-opacity:1"
       x="161.23593"
       y="147.08269"
       id="text1529"><tspan
         sodipodi:role="line"
         id="tspan1527"
         x="161.23593"
         y="147.08269"
         style="font-style:normal;font-variant:normal;font-weight:normal;font-stretch:normal;font-family:'Frutiger LT W01';-inkscape-font-specification:'Frutiger LT W01';letter-spacing:-2.18400002px;stroke-width:0.83999997px">uclan</tspan></text>
    <g
       id="g1875"
       transform="translate(-2.5199991,105)">
      <path
         style="fill:#b52b45;stroke-width:0.3144024"
         d="m 320.23125,-1.9764033 c -3.05017,-3.1795066 -4.95503,-6.24237 -6.28329,-10.1030297 -0.64508,-1.874946 -0.77435,-4.758649 -0.25668,-5.725915 0.31811,-0.594389 0.37418,-0.581749 1.48644,0.335071 0.63573,0.524019 1.28408,0.952762 1.44078,0.952762 0.1567,0 1.42966,0.58328 2.8288,1.29618 2.44478,1.245681 2.6263,1.288515 4.65949,1.099548 l 2.11559,-0.196625 0.19915,1.061542 c 0.54088,2.883108 -2.51926,13.40268294 -3.89883,13.40268294 -0.14056,0 -1.17172,-0.95499731 -2.29145,-2.12221624 z m 25.84717,-4.5244378 c -3.92338,-2.4144682 -9.45194,-7.9517269 -9.45194,-9.4668099 0,-0.25647 0.54455,-0.826673 1.21012,-1.26712 1.52318,-1.007997 3.02479,-3.250828 3.49848,-5.22541 0.30276,-1.262029 0.28131,-1.720192 -0.12622,-2.695536 -0.63839,-1.527891 -0.40082,-1.837465 0.97043,-1.264523 3.10625,1.297876 6.17137,4.759394 7.19595,8.126584 0.74596,2.451515 1.05302,6.323025 0.75312,9.495499 -0.29869,3.1596993 -0.50117,3.9135314 -1.05116,3.9135314 -0.20489,0 -1.55433,-0.7272988 -2.99878,-1.6162155 z m -60.48886,-0.1915983 c -0.53169,-0.890178 -0.9748,-4.6122866 -0.96379,-8.0958616 0.0232,-7.350047 1.61808,-10.944977 5.7899,-13.050904 l 1.79004,-0.903608 2.44572,1.00361 c 1.34515,0.55199 2.64224,1.302457 2.88242,1.667714 0.6532,0.993328 0.88267,4.47785 0.42452,6.44623 -0.9451,4.06041 -4.4383,8.429084 -9.24,11.555737 -2.51546,1.637958 -2.87775,1.7974124 -3.12881,1.3770826 z m 16.16348,-3.4898896 c -1.56172,-2.918092 -2.39621,-10.795463 -1.47816,-13.953433 0.52565,-1.808196 0.60775,-1.879587 2.62913,-2.286319 0.62552,-0.125862 1.37533,-0.63732 1.94178,-1.324518 l 0.92277,-1.119482 1.28721,0.51504 c 0.70797,0.283273 1.56128,0.51504 1.89625,0.51504 0.33498,0 1.00117,0.491437 1.48044,1.09208 0.47926,0.600647 1.28009,1.261375 1.77962,1.468282 0.88805,0.367843 0.90367,0.415168 0.70311,2.130544 -0.38471,3.290509 -4.73408,9.322417 -8.95752,12.422705 -1.77302,1.3015141 -1.79432,1.3067317 -2.20463,0.540061 z m -38.15214,-2.255534 c -2.95155,-0.464862 -4.31741,-0.917853 -4.31741,-1.431874 0,-1.52057 3.45666,-6.498556 5.90354,-8.501778 4.34087,-3.553799 10.55515,-4.972679 16.92254,-3.863845 3.27161,0.569727 3.32543,0.688702 1.74987,3.868302 -2.39774,4.838852 -6.74596,8.390682 -11.72769,9.579745 -2.10855,0.503275 -6.43017,0.680303 -8.53085,0.34945 z m 97.54897,-0.154412 c -5.00952,-1.383053 -8.95597,-4.62532 -11.27888,-9.266338 -1.52849,-3.053828 -1.4759,-3.223133 1.22214,-3.934862 7.04482,-1.858391 13.67839,-0.04318 18.89085,5.169274 2.06296,2.062958 4.77575,6.076664 4.62748,6.846572 -0.15906,0.825943 -2.82786,1.368598 -7.48795,1.522546 -3.18464,0.105205 -4.67619,0.021 -5.97364,-0.337192 z m -40.40071,-3.130898 c -0.69169,-0.425944 -1.9208,-0.999579 -2.73137,-1.274737 -2.81282,-0.954855 -4.81023,-4.224333 -4.02827,-6.5937 0.32483,-0.98424 0.46961,-1.074511 2.03746,-1.270403 1.95099,-0.243759 2.36416,-0.07742 2.36416,0.951779 0,0.765487 1.30363,2.047878 2.0818,2.047878 0.23374,0 0.63401,0.500278 0.88949,1.111724 0.52583,1.2585 1.96738,2.032301 3.78604,2.032301 0.91112,0 1.17509,0.149404 1.42491,0.806475 0.51587,1.356826 0.3582,1.716072 -1.02959,2.346015 -1.81304,0.822971 -3.28096,0.774804 -4.79463,-0.157332 z m 7.88801,-0.818465 c -1.21202,-1.440393 -1.07838,-2.054043 0.50234,-2.306811 1.90364,-0.304405 3.36211,-1.085961 3.8741,-2.076022 0.31137,-0.60214 0.78306,-0.926851 1.55737,-1.072112 1.48569,-0.278718 2.08984,-1.454504 1.98052,-3.854439 -0.10794,-2.369733 0.37325,-2.461793 2.51618,-0.481372 1.35927,1.256191 1.64603,1.706 1.64603,2.581955 0,3.611387 -5.38109,8.175233 -9.63993,8.175885 -1.42613,2.17e-4 -1.72124,-0.116913 -2.43661,-0.967084 z m -4.78305,-3.441149 c -1.48474,-0.461086 -1.80403,-1.028736 -1.59089,-2.82836 0.20744,-1.751581 -0.34382,-2.188237 -0.98526,-0.780422 -0.65057,1.427848 -1.4286,0.810863 -1.78412,-1.414811 -0.26094,-1.633631 -0.97108,-2.916643 -2.3383,-4.224651 -1.56428,-1.496533 -1.13849,-3.321006 0.77505,-3.321006 1.2419,0 1.36128,-0.285246 0.46054,-1.100409 -0.89834,-0.812985 -0.79298,-1.289012 0.64754,-2.925529 0.72772,-0.826733 1.43564,-2.045562 1.64692,-2.835528 0.41913,-1.567087 1.03387,-1.941798 3.18565,-1.941798 1.50889,0 2.86911,0.849373 3.33885,2.0849 0.36569,0.961816 0.92751,0.960128 0.92751,-0.003 0,-0.878249 0.45488,-1.318761 1.67905,-1.626007 0.78488,-0.196995 1.06828,-0.03586 2.40923,1.370069 0.83584,0.876329 2.06928,1.873696 2.74099,2.216376 2.04127,1.041379 2.38162,3.231005 0.5728,3.684991 -1.08579,0.272512 -1.00571,0.689944 0.1919,1.000275 0.54534,0.141312 1.1842,0.547112 1.41969,0.901788 0.38476,0.579481 0.31642,0.785441 -0.67407,2.031478 -1.04403,1.313404 -1.10239,1.514693 -1.10528,3.812177 -0.003,2.147253 -0.0795,2.466454 -0.66906,2.781994 -0.52584,0.28142 -0.92354,0.240308 -1.88962,-0.195334 -1.40072,-0.631638 -1.88638,-0.42332 -1.08291,0.464507 1.39688,1.543544 -0.4864,2.871273 -4.31134,3.039527 -1.42043,0.06249 -3.02462,-0.02369 -3.56487,-0.191434 z m 3.31817,-5.154148 c 0.2573,-0.310023 0.62653,-0.371178 1.2176,-0.201663 1.11659,0.320234 2.86435,-0.774665 3.55023,-2.22409 1.12723,-2.382048 1.32085,-3.6989 0.40993,-2.787979 -0.21034,0.210343 -0.32555,-0.05881 -0.34685,-0.810316 -0.0561,-1.977666 -0.41143,-3.277469 -0.89609,-3.277469 -0.25324,0 -0.70664,-0.295875 -1.00756,-0.657509 -0.72611,-0.872598 -1.99472,-1.370162 -2.28713,-0.897035 -0.15844,0.256354 -0.49132,0.216017 -1.18725,-0.143865 -0.67041,-0.346681 -1.0321,-0.39492 -1.17899,-0.157243 -0.11654,0.188571 -0.56003,0.276308 -0.98552,0.194967 -0.58936,-0.11266 -0.85471,0.03006 -1.11402,0.599199 -0.18722,0.410898 -0.46267,0.747084 -0.61212,0.747084 -0.14944,0 -0.40619,0.353702 -0.57055,0.786006 -0.16436,0.432303 -0.42733,0.786006 -0.58437,0.786006 -0.47679,0 -0.61562,1.54284 -0.17197,1.911039 0.28063,0.232904 0.36508,0.835247 0.26305,1.876331 -0.13393,1.366666 -0.0661,1.588466 0.62415,2.040726 0.42591,0.279073 0.70576,0.686284 0.62187,0.904914 -0.17277,0.450209 0.6576,1.264088 1.04525,1.024502 0.13944,-0.08618 0.60545,0.03811 1.03558,0.276195 1.01327,0.560853 1.71503,0.564147 2.17476,0.01022 z m -1.47129,-3.806927 c -0.88913,-0.628195 -0.96241,-2.336732 -0.13245,-3.087839 1.76913,-1.601046 4.38169,0.675459 2.96415,2.582871 -0.735,0.989006 -1.86213,1.190002 -2.8317,0.504968 z m -13.87179,2.251402 -0.6979,-0.742877 1.70294,-1.772342 c 0.93662,-0.97479 1.79193,-1.772346 1.9007,-1.772346 0.10877,0 0.19776,0.259423 0.19776,0.576494 0,0.317071 0.56593,1.189496 1.25761,1.938725 1.95076,2.113057 1.67892,2.515219 -1.70012,2.515219 -1.65706,0 -2.07189,-0.115808 -2.66099,-0.742873 z m -14.66023,-1.108946 c -2.73439,-0.796385 -4.304,-1.699663 -6.24294,-3.592669 -2.08156,-2.032256 -2.7006,-3.64133 -2.13156,-5.540608 0.51033,-1.703339 1.45104,-1.980777 2.43842,-0.719144 0.73958,0.945019 2.74863,1.957769 3.88372,1.957769 0.36397,0 0.98882,0.55446 1.55936,1.383719 1.11314,1.617885 2.97981,2.63668 5.34405,2.916692 2.5046,0.296632 3.31681,1.924139 1.70549,3.417457 -0.70193,0.650525 -1.13179,0.767494 -2.75102,0.748596 -1.05551,-0.01231 -2.768,-0.269634 -3.80552,-0.571812 z m 47.31756,0.195723 c -1.21364,-0.43971 -1.23016,-0.534121 -0.57793,-3.302531 0.30569,-1.297509 0.30926,-2.04466 0.0164,-3.44082 -0.44208,-2.107638 -0.17901,-2.693059 1.88063,-4.185056 2.26563,-1.64121 5.80046,-2.562907 10.52068,-2.743236 4.76719,-0.182121 6.97441,0.05484 7.25213,0.778554 0.10528,0.274361 -0.209,1.217775 -0.69965,2.100208 -2.75061,4.946976 -5.7337,8.134886 -9.22851,9.862108 -2.07727,1.026647 -2.61855,1.155709 -5.19122,1.237806 -1.7617,0.05621 -3.29757,-0.06249 -3.97254,-0.307033 z m -63.19363,-0.261575 c -3.60567,-0.705961 -7.00947,-2.979146 -9.85336,-6.580439 -2.07639,-2.629373 -3.93975,-5.796644 -3.6064,-6.129997 0.39423,-0.394227 2.64393,-0.772588 5.75565,-0.968 5.14643,-0.323187 10.22668,0.809706 12.95178,2.888243 0.90339,0.68905 1.03912,0.976605 1.03912,2.201483 0,1.741239 0.63186,3.302003 2.02511,5.002284 0.58856,0.71826 0.969,1.465119 0.84694,1.662631 -0.37808,0.61173 -2.93682,1.586602 -5.07476,1.933459 -2.28195,0.37022 -2.14216,0.370553 -4.08408,-0.0097 z m 57.38991,-0.515732 c -0.87427,-0.94286 -0.95862,-1.203499 -0.48433,-1.496627 0.52671,-0.325522 0.35136,-1.91184 -0.30335,-2.744157 -0.52572,-0.668352 -0.56447,-0.926469 -0.26015,-1.732724 0.5253,-1.391683 -0.13935,-2.744212 -1.83764,-3.739472 -1.20143,-0.704085 -1.37169,-0.939307 -1.37169,-1.895064 0,-1.602307 0.48688,-2.307474 1.59317,-2.307474 3.46705,0 6.49514,4.106151 6.81555,9.242027 0.18582,2.978341 -0.27296,4.270374 -1.79598,5.057956 -1.24403,0.643316 -1.43084,0.612827 -2.35558,-0.384465 z m -30.35256,-0.45122 c -1.3194,-0.374925 -3.14402,-1.698623 -3.14402,-2.28087 0,-0.229604 0.45213,-0.604742 1.00474,-0.833638 1.53682,-0.636571 3.00266,-2.079633 3.42326,-3.370053 0.42942,-1.317507 0.76585,-1.623207 1.79397,-1.630083 1.20176,-0.008 3.10638,-1.177587 3.83341,-2.353946 0.37768,-0.611086 0.78107,-1.770935 0.89644,-2.577441 0.11536,-0.806506 0.37671,-1.522026 0.58076,-1.590045 0.46476,-0.154918 2.83815,1.959333 3.08991,2.752533 0.2667,0.840308 -0.42922,2.013609 -2.89002,4.872489 -1.18696,1.378973 -2.83134,3.386642 -3.65417,4.461486 -2.24902,2.937836 -2.71699,3.179638 -4.93428,2.549568 z m -6.60245,-3.701516 c -3.03324,-0.442544 -4.62239,-1.967972 -4.28011,-4.108476 0.22178,-1.386956 -0.0487,-1.572884 -0.90753,-0.623868 -0.31298,0.345843 -0.9362,0.628274 -1.38494,0.627626 -1.15211,-0.0015 -2.81144,-1.098256 -3.20838,-2.120315 -0.18484,-0.475934 -0.67714,-1.522845 -1.094,-2.326477 -1.10315,-2.126662 -1.04144,-4.120157 0.16487,-5.326467 0.50755,-0.507542 1.36196,-1.010635 1.8987,-1.117981 1.2275,-0.2455 1.07071,-0.865576 -0.25189,-0.996191 -1.00435,-0.09919 -1.1567,-0.371014 -1.00104,-1.786046 0.23745,-2.158458 3.99333,-6.171206 6.37152,-6.807276 1.35784,-0.363165 1.55851,-0.342021 2.35282,0.247921 0.47761,0.354725 1.0806,1.055651 1.33998,1.557614 0.25938,0.501962 0.50933,0.97397 0.55545,1.048902 0.0461,0.07493 0.2372,-0.01711 0.42464,-0.204567 0.24481,-0.244808 0.22557,-0.659512 -0.0683,-1.472246 -0.83297,-2.303529 0.84542,-2.330852 3.32523,-0.05413 1.687,1.548832 2.70298,1.909504 4.51605,1.60319 2.67032,-0.451149 3.65981,2.290897 1.59532,4.420913 -1.2358,1.275018 -0.98864,1.738313 0.49974,0.936766 1.02196,-0.550361 1.11877,-0.552416 1.90027,-0.04036 0.4529,0.296748 1.02555,1.023249 1.27257,1.614442 0.39019,0.933872 0.38886,1.332849 -0.0102,3.040971 -0.25261,1.081338 -0.54127,2.483775 -0.64147,3.116525 -0.37508,2.368704 -3.98258,4.397449 -5.20352,2.926304 -0.67662,-0.815275 -1.07289,-0.339509 -0.97968,1.176221 0.0754,1.225772 -0.0549,1.598758 -0.89113,2.551173 -1.42817,1.626584 -3.91628,2.462879 -6.29497,2.115831 z m 2.97608,-5.850872 c 0.6659,-0.718521 0.77654,-0.748176 1.03933,-0.278594 0.32112,0.573815 1.64383,0.377178 1.64383,-0.244373 0,-0.187833 0.57684,-0.874038 1.28185,-1.524904 1.24891,-1.152988 1.26879,-1.203311 0.77373,-1.958862 -0.48952,-0.747098 -0.47125,-0.812337 0.49943,-1.783009 0.75466,-0.754656 0.90488,-1.070982 0.59852,-1.26032 -0.24735,-0.152874 -0.33554,-0.545716 -0.22312,-0.993934 0.17548,-0.699583 -1.02093,-3.008319 -2.01332,-3.885176 -0.1957,-0.172921 -0.83581,-0.801864 -1.42246,-1.397649 -0.79313,-0.805477 -1.06664,-0.945468 -1.06664,-0.545941 0,0.295523 0.1715,0.811918 0.38111,1.14755 0.52008,0.832784 -0.003,1.265555 -0.58153,0.481144 -0.25488,-0.345573 -0.68161,-0.583557 -0.9483,-0.528855 -0.26669,0.0547 -0.71862,-0.104232 -1.00429,-0.353182 -0.63917,-0.557002 -2.87743,-0.999598 -2.87743,-0.568986 0,0.568132 -0.98278,1.294316 -1.75167,1.294316 -0.41995,0 -0.76355,0.14498 -0.76355,0.322184 0,0.177199 -0.3537,0.456662 -0.786,0.621023 -0.4323,0.164361 -0.78601,0.459158 -0.78601,0.655106 0,0.223024 0.29397,0.282487 0.78601,0.158994 0.45326,-0.113761 0.786,-0.06164 0.786,0.123115 0,0.176219 -0.12784,0.320395 -0.28409,0.320395 -0.15626,0 -0.78549,0.443898 -1.39831,0.986441 -0.92751,0.821155 -1.08404,1.137242 -0.93421,1.886414 0.139,0.694987 0.0636,0.899973 -0.33091,0.899973 -0.7753,0 -0.6108,0.863252 0.2751,1.443721 0.45605,0.29881 0.78601,0.814404 0.78601,1.228187 0,0.473546 0.23587,0.77486 0.70198,0.896751 0.55635,0.145489 0.62158,0.263982 0.3144,0.571157 -0.21316,0.213164 -0.38757,0.4904 -0.38757,0.616071 0,0.431832 1.96714,1.209476 2.6353,1.04178 0.39318,-0.09868 1.25093,0.152421 2.08209,0.609525 1.80529,0.992838 2.07141,0.994623 2.97472,0.01995 z m -3.49711,-5.033163 c -0.65013,-0.650135 -0.76955,-1.001255 -0.61484,-1.807814 0.22824,-1.18993 1.50992,-2.415774 2.52581,-2.415774 0.96566,0 2.26394,1.055276 2.51143,2.041355 0.22921,0.913256 -0.47664,2.499686 -1.24303,2.79378 -1.11369,0.427362 -2.38499,0.182828 -3.17937,-0.611547 z m -14.62444,3.624963 c -1.27264,-0.742593 -1.88699,-2.419918 -2.06419,-5.635787 -0.43075,-7.817159 2.32093,-12.231377 6.86235,-11.008501 0.69411,0.186905 1.33524,0.530622 1.42472,0.763818 0.0895,0.233193 -0.33644,1.077899 -0.9465,1.877117 -1.23138,1.613203 -1.62318,3.055393 -1.3293,4.893157 0.11342,0.709341 0.0613,1.306709 -0.12391,1.4212 -0.60276,0.372526 -1.5682,2.645128 -1.5682,3.69147 0,0.575551 0.28505,1.605563 0.63345,2.288917 0.34839,0.683354 0.56505,1.420672 0.48146,1.638489 -0.18056,0.470534 -2.59748,0.520827 -3.36988,0.07012 z m 53.89784,-1.536388 c -1.2987,-1.174068 -3.19834,-1.91053 -4.92806,-1.91053 -0.55044,0 -0.93392,-0.266886 -1.2434,-0.865351 -0.24612,-0.475942 -0.74493,-1.134532 -1.10848,-1.463539 -0.36355,-0.329004 -0.66099,-0.796269 -0.66099,-1.038367 0,-0.548202 2.62818,-1.724785 5.38967,-2.41284 2.60479,-0.649016 7.96067,-1.035698 8.23338,-0.594434 0.4657,0.753518 -3.14354,9.144192 -4.04499,9.403713 -0.16676,0.04801 -0.90346,-0.455386 -1.63713,-1.118652 z m -8.52597,-0.03458 c -0.8946,-0.74528 -1.94914,-0.787271 -3.22335,-0.128351 -0.88556,0.457938 -1.04087,0.444816 -2.37422,-0.200649 -1.22124,-0.591196 -1.7538,-0.662984 -3.6986,-0.498589 -2.35852,0.199368 -3.00929,-0.02908 -3.00929,-1.056441 0,-1.18654 1.30867,-1.788748 5.03044,-2.314851 6.17862,-0.873399 7.10336,-0.704876 8.49589,1.548289 0.52014,0.841607 0.6377,1.37718 0.48314,2.201053 -0.23144,1.233666 -0.63498,1.340129 -1.70401,0.449539 z m -14.05367,-2.903633 c -0.90257,-0.493444 -1.07128,-0.870933 -1.0766,-2.408776 -0.004,-1.243289 -0.15672,-1.534298 -1.41962,-2.710369 -1.2306,-1.145986 -1.41481,-1.48465 -1.41481,-2.600999 0,-2.485527 -1.36147,-3.817238 -3.43658,-3.361471 -1.13942,0.250261 -3.03607,-0.303858 -3.28811,-0.960641 -0.23738,-0.618625 1.80258,-2.846682 3.31089,-3.61616 1.42774,-0.728381 2.50947,-0.766283 3.8407,-0.134573 1.67194,0.793385 6.80355,9.822696 6.8041,11.972127 2.6e-4,0.992441 -1.57217,3.717569 -2.30801,3.999936 -0.22117,0.08487 -0.67656,0.0043 -1.01196,-0.179074 z m 4.21356,-2.270375 c -0.11389,-0.114237 -0.0884,-0.621499 0.0567,-1.127245 0.14504,-0.50575 0.14257,-1.341944 -0.005,-1.858216 -0.22969,-0.800898 -0.15341,-1.029761 0.51974,-1.559256 0.87045,-0.684701 5.35533,-2.496157 6.47343,-2.614641 0.65032,-0.06891 0.71601,0.06965 0.80141,1.69019 0.0512,0.970889 -0.0212,2.446702 -0.16086,3.279584 -0.21332,1.272405 -0.38617,1.549704 -1.08197,1.735789 -1.26473,0.338241 -6.36843,0.689002 -6.60292,0.453795 z M 318.2465,-56.9223 c -2.38078,-3.919529 -3.14295,-4.554763 -5.46496,-4.554763 -0.69858,0 -1.34666,-0.123806 -1.44018,-0.275126 -0.26583,-0.430115 1.39675,-2.516773 3.78887,-4.755313 2.85911,-2.675551 4.75592,-3.97559 5.18073,-3.550781 0.17822,0.17822 0.62519,1.439127 0.99327,2.802016 1.17208,4.33984 0.8345,13.974833 -0.48859,13.945111 -0.20949,-0.0047 -1.3656,-1.629724 -2.56914,-3.611144 z m -25.05413,0.0418 c -0.52921,-0.262373 -0.76601,-0.680218 -0.83292,-1.469779 -0.17058,-2.01279 2.15193,-4.467652 4.60886,-4.871513 0.62913,-0.103414 1.93971,-0.531302 2.9124,-0.950862 1.97671,-0.852635 2.9424,-0.925659 5.36866,-0.40597 1.82607,0.391135 4.03483,2.208289 4.01161,3.300373 -0.0139,0.652835 -2.55994,3.574016 -3.11506,3.574016 -0.19415,0 -0.7007,-0.227822 -1.12566,-0.506266 -0.55824,-0.36577 -1.1005,-0.445052 -1.95396,-0.285687 -0.6497,0.121322 -2.1801,0.201053 -3.40087,0.177184 -1.89735,-0.03709 -2.47467,0.09079 -3.97661,0.880851 -1.49544,0.786646 -1.8671,0.869667 -2.49645,0.557653 z"
         id="path1583"
         inkscape:connector-curvature="0" />
      <path
         style="fill:#040c0c;fill-opacity:1;stroke:none;stroke-width:0.3144024"
         d="m 320.22154,-2.3526681 c -2.42941,-2.6618356 -4.72828,-6.3772823 -5.76667,-9.3201189 -0.78063,-2.212345 -1.00607,-4.943259 -0.47711,-5.779697 0.24964,-0.394758 0.40022,-0.365186 1.01699,0.199713 0.39818,0.364688 2.32366,1.401494 4.27885,2.304008 3.45636,1.595462 3.59464,1.630918 4.99007,1.279543 0.78937,-0.198762 1.52296,-0.273638 1.63021,-0.16639 0.34388,0.343878 0.10213,4.038851 -0.40822,6.2394546 -0.56858,2.4516613 -2.22196,6.5918694 -2.83595,7.10142584 -0.32375,0.26869428 -0.86571,-0.14599126 -2.42817,-1.85793854 z m 26.29012,-4.2846461 c -3.7709,-2.2688737 -6.91017,-5.1223078 -8.85542,-8.0491318 l -0.76814,-1.155755 2.01866,-1.988269 c 2.66506,-2.624927 3.63709,-5.260959 2.69909,-7.319644 -0.54609,-1.198532 -0.16397,-1.270152 1.61393,-0.302504 2.92561,1.592321 5.13605,4.659796 6.14262,8.524273 0.48489,1.861655 0.63206,7.3077 0.26905,9.9562222 -0.24806,1.8097452 -0.60479,1.8480274 -3.11979,0.3348086 z m -61.08723,-2.2559421 c -1.1972,-6.1720527 -0.39176,-13.0260847 1.89405,-16.1178127 0.8574,-1.1597 3.89353,-3.140091 4.81022,-3.137591 0.35125,0.0011 1.62901,0.402379 2.83946,0.892042 2.11434,0.855321 2.21526,0.944813 2.56852,2.277677 1.13568,4.285032 -0.40959,8.848587 -4.34432,12.829864 -1.91309,1.935731 -6.21202,5.0636346 -6.95934,5.0636346 -0.30721,0 -0.57333,-0.5949954 -0.80859,-1.8078139 z m 16.5003,-1.5863547 c -0.085,-0.137577 -0.45608,-1.375537 -0.82456,-2.751021 -0.85373,-3.186839 -1.14735,-7.884595 -0.64383,-10.300998 0.39557,-1.898336 0.63997,-2.139063 2.59536,-2.556294 0.46876,-0.100021 1.31948,-0.662914 1.89049,-1.250869 1.0115,-1.041499 1.06533,-1.057604 2.09204,-0.625904 0.5796,0.243707 1.33261,0.443098 1.67336,0.443098 0.34074,0 1.06728,0.509994 1.61452,1.133316 0.54724,0.623321 1.329,1.262449 1.73726,1.420287 0.68213,0.26372 0.72502,0.407555 0.52935,1.77491 -0.43414,3.033747 -3.75866,7.945675 -7.52172,11.11323 -2.11671,1.781745 -2.81144,2.135545 -3.14227,1.600245 z m -36.8248,-2.139654 c -3.27401,-0.410636 -5.25143,-0.869042 -5.39816,-1.251401 -0.28068,-0.731446 2.04734,-4.468904 4.21478,-6.766505 4.27627,-4.533072 10.84273,-6.45196 18.02165,-5.26639 1.20036,0.198239 2.31778,0.523462 2.48316,0.722722 0.5137,0.618976 -1.7746,4.70864 -3.94832,7.056466 -3.11569,3.365229 -7.05074,5.127087 -12.22908,5.475378 -1.21045,0.08141 -2.62527,0.09479 -3.14403,0.02972 z m 96.29569,-0.277782 c -4.84795,-1.233236 -8.7792,-4.377507 -11.2358,-8.986572 -1.4526,-2.725356 -1.36982,-2.952212 1.32217,-3.623053 6.52457,-1.625925 12.60384,-0.06376 17.54122,4.507493 2.15925,1.999139 5.45614,6.465925 5.24344,7.104057 -0.37127,1.113782 -9.60226,1.829594 -12.87103,0.998075 z m -16.33425,-14.9143 c -1.42027,-0.459065 -1.47417,-0.568511 -0.97813,-1.98623 0.34741,-0.992912 0.41797,-2.034168 0.27263,-4.022996 l -0.19611,-2.683345 1.028,-0.993864 c 2.46478,-2.382934 7.47372,-3.670165 13.60529,-3.496387 2.3342,0.06616 4.04031,0.253113 4.25316,0.466064 0.44476,0.444981 -0.38561,2.158452 -2.61401,5.394038 -2.02034,2.933494 -4.41413,5.112591 -7.03211,6.401416 -1.77685,0.874739 -2.46291,1.033404 -4.78644,1.106947 -1.49177,0.04722 -3.09029,-0.03631 -3.55228,-0.185643 z m -65.18453,-0.779894 c -3.58813,-1.137755 -7.02912,-4.075669 -9.92883,-8.477228 -1.02369,-1.553889 -1.86126,-2.92675 -1.86126,-3.050804 0,-0.379147 0.87552,-0.594393 3.95921,-0.973356 5.12901,-0.630317 11.59597,0.55827 14.04033,2.580525 1.04033,0.860677 1.17901,1.140326 1.17901,2.377429 0,1.74021 0.56438,3.129299 1.8804,4.62816 0.55872,0.636343 0.94094,1.352185 0.8494,1.590757 -0.0916,0.238575 -1.05364,0.733373 -2.13798,1.099562 -2.2613,0.763654 -5.95318,0.867725 -7.98028,0.224955 z m 60.47355,-13.221197 c -1.15744,-1.076481 -2.83928,-1.738687 -4.42407,-1.741928 -0.59442,-0.0011 -1.02201,-0.266913 -1.39426,-0.866359 -0.29529,-0.475533 -0.80858,-1.172492 -1.14064,-1.548794 l -0.60375,-0.684185 1.31604,-0.671395 c 1.90192,-0.970287 5.57283,-1.836844 8.8195,-2.081935 2.73178,-0.206222 2.82094,-0.191879 2.82094,0.453787 0,1.67069 -3.0953,8.236164 -3.87451,8.218243 -0.20346,-0.0047 -0.88712,-0.489524 -1.51925,-1.077434 z m -17.77359,-6.89245 -0.0191,-2.031241 2.52368,-1.153606 c 1.38803,-0.634487 2.99722,-1.230452 3.57598,-1.324372 l 1.05227,-0.170762 -0.0181,1.691751 c -0.01,0.930463 -0.1175,2.251634 -0.23896,2.935942 -0.24932,1.404686 -0.46516,1.492124 -4.63599,1.878049 l -2.22065,0.205477 -0.0191,-2.031238 z m -4.14013,-8.549174 c -1.09895,-1.819746 -2.34495,-3.535901 -2.7689,-3.813679 -0.42394,-0.277779 -1.47016,-0.572253 -2.32494,-0.654386 -0.85478,-0.08213 -1.55414,-0.267514 -1.55414,-0.411957 0,-1.053997 6.8901,-7.517434 8.01367,-7.517434 1.06338,0 2.24216,6.812723 1.92678,11.135774 -0.25613,3.510812 -0.47656,4.586416 -0.93804,4.577329 -0.19599,-0.0039 -1.25548,-1.495901 -2.35443,-3.315647 z"
         id="path1581"
         inkscape:connector-curvature="0" />
    </g>
    <text
       xml:space="preserve"
       style="font-style:normal;font-weight:normal;font-size:151.0561676px;line-height:125%;font-family:sans-serif;letter-spacing:-4.19999981px;word-spacing:0px;fill:#b52b45;fill-opacity:1;stroke:none;stroke-width:1.77018929px;stroke-linecap:butt;stroke-linejoin:miter;stroke-opacity:1"
       x="60.250034"
       y="176.41525"
       id="text1743"><tspan
         sodipodi:role="line"
         id="tspan1741"
         x="60.250034"
         y="176.41525"
         style="font-style:normal;font-variant:normal;font-weight:normal;font-stretch:normal;font-family:'Parkway Lush';-inkscape-font-specification:'Parkway Lush';letter-spacing:-4.19999981px;fill:#b52b45;fill-opacity:1;stroke-width:1.77018929px"
         rotate="351.69989 351.69989 351.69989 0">you</tspan></text>
  </g>
</svg>
